<svg xmlns="http://www.w3.org/2000/svg" version="1.1" xmlns:xlink="http://www.w3.org/1999/xlink" xmlns:svgjs="http://svgjs.dev/svgjs" viewBox="0 0 800 800" opacity="0.1"><defs><linearGradient x1="50%" y1="0%" x2="50%" y2="100%" id="ccchaos-grad"><stop stop-color="#35afae" stop-opacity="1" offset="0%"></stop><stop stop-color="#353531" stop-opacity="1" offset="100%"></stop></linearGradient></defs><g stroke-width="2" stroke="url(#ccchaos-grad)" fill="none" stroke-linecap="round"><path d="M378.7 99.87C388.07 100.55 397.4 102.22 406.66 104.8 415.93 107.78 425.15 111.52 434.32 115.91 443.53 120.46 452.71 125.48 461.87 130.87 471.1 136.17 480.34 141.68 489.6 147.33 498.97 152.69 508.4 158.1 517.88 163.52 527.51 168.55 537.22 173.59 547 178.61 556.94 183.26 566.95 187.94 576.99 192.68 587.15 197.12 597.29 201.69 607.36 206.44 617.44 210.98 627.33 215.77 636.95 220.83 646.4 225.79 655.41 231.09 663.86 236.74 671.92 242.37 679.24 248.38 685.69 254.78 691.53 261.19 696.34 268 700.01 275.18 702.93 282.4 704.64 289.98 705.09 297.9 704.81 305.85 703.33 314.12 700.68 322.68 697.52 331.25 693.4 340.1 688.44 349.19 683.37 358.27 677.78 367.6 671.83 377.13 666.27 386.66 660.81 396.19 655.61 405.69 651.17 415.21 647.14 424.73 643.59 434.24 640.92 443.8 638.71 453.39 636.93 463.02 635.95 472.74 635.25 482.54 634.74 492.43 634.77 502.45 634.78 512.6 634.65 522.86 634.77 533.27 634.54 543.82 633.87 554.45 633.19 565.19 631.91 575.99 629.98 586.75 627.85 597.51 625 608.12 621.41 618.46 617.54 628.59 612.92 638.26 607.6 647.32 601.99 655.88 595.71 663.61 588.82 670.35 581.69 676.33 574.02 681.14 565.86 684.67 557.54 687.31 548.82 688.62 539.74 688.58 530.57 687.78 521.12 685.8 511.44 682.75 501.71 679.35 491.8 675.24 481.76 670.64 471.7 666.35 461.53 662.04 451.28 657.96 441.04 654.84 430.73 652.36 420.37 650.65 410.02 650.32 399.86 650.87 389.92 652.23 379.96 654.77 370.2 657.83 360.64 661.2 351.05 665.21 341.64 669.08 332.43 672.58 323.16 676.06 314.07 678.77 305.15 680.54 296.17 681.77 287.35 681.82 278.7 680.63 269.97 678.65 261.41 675.39 253.02 670.91 244.56 665.64 236.28 659.28 228.19 651.93 220.06 643.99 212.13 635.26 204.45 625.91 196.74 616.2 189.31 606.05 182.18 595.6 175.08 585.02 168.32 574.27 161.93 563.46 155.63 552.67 149.75 541.9 144.32 531.19 139.02 520.57 134.21 510.04 129.93 499.63 125.81 489.33 122.24 479.12 119.24 469.02 116.42 459.01 114.19 449.07 112.56 439.21 111.09 429.4 110.22 419.64 109.96 409.94 109.83 400.26 110.28 390.61 111.33 381.02 112.45 371.43 114.09 362.11 116.22 353.08 118.34 344.04 120.9 335.3 123.86 326.86 126.75 318.43 130 310.32 133.57 302.55 137.01 294.79 140.75 287.37 144.76 280.33 148.6 273.28 152.71 266.59 157.04 260.28 161.2 253.93 165.6 247.93 170.22 242.27 174.68 236.53 179.39 231.07 184.33 225.89 189.14 220.54 194.21 215.39 199.54 210.42 204.78 205.19 210.31 200.06 216.12 195.01 221.88 189.62 227.95 184.24 234.32 178.88 240.66 173.15 247.32 167.41 254.28 161.7 261.25 155.66 268.52 149.69 276.07 143.85 283.64 137.83 291.49 132.06 299.59 126.62 307.71 121.23 316.08 116.34 324.68 112.06 333.28 108.07 342.1 104.85 351.11 102.5 360.12 100.63 369.32 99.74 378.69 99.87" stroke-dasharray="8 6" transform="rotate(0, 400, 400)" opacity="0.86"></path><path d="M380.39 110.46C389.43 111.13 398.47 112.74 407.47 115.22 416.48 118.09 425.49 121.7 434.47 125.94 443.48 130.36 452.5 135.26 461.52 140.52 470.61 145.73 479.73 151.17 488.87 156.77 498.12 162.13 507.42 167.56 516.77 173.01 526.25 178.12 535.79 183.24 545.38 188.35 555.08 193.11 564.82 197.89 574.54 202.72 584.34 207.24 594.08 211.87 603.68 216.63 613.25 221.18 622.59 225.93 631.61 230.91 640.43 235.76 648.78 240.9 656.55 246.34 663.93 251.74 670.57 257.47 676.36 263.55 681.58 269.63 685.82 276.07 688.98 282.86 691.47 289.66 692.83 296.82 693.03 304.31 692.59 311.82 691.04 319.65 688.43 327.78 685.38 335.91 681.44 344.34 676.74 353.03 671.95 361.73 666.67 370.68 661.05 379.89 655.78 389.1 650.57 398.34 645.58 407.61 641.25 416.89 637.28 426.22 633.71 435.58 630.94 444.98 628.57 454.45 626.58 463.98 625.32 473.59 624.32 483.29 623.5 493.08 623.22 502.98 622.93 512.99 622.54 523.1 622.43 533.3 622.03 543.59 621.27 553.92 620.55 564.3 619.31 574.66 617.5 584.91 615.57 595.1 612.98 605.06 609.74 614.68 606.27 624.04 602.13 632.88 597.32 641.07 592.27 648.76 586.59 655.6 580.32 661.47 573.83 666.63 566.81 670.67 559.31 673.51 551.65 675.57 543.57 676.41 535.13 676.03 526.59 675.01 517.74 672.94 508.63 669.92 499.48 666.65 490.1 662.78 480.56 658.49 471 654.52 461.3 650.55 451.49 646.8 441.67 643.95 431.76 641.66 421.77 640.06 411.78 639.72 401.96 640.16 392.31 641.33 382.65 643.59 373.16 646.32 363.84 649.35 354.5 652.99 345.32 656.54 336.3 659.8 327.25 663.11 318.35 665.75 309.6 667.58 300.81 668.99 292.17 669.34 283.68 668.59 275.14 667.16 266.75 664.56 258.53 660.82 250.26 656.38 242.17 650.87 234.27 644.42 226.34 637.39 218.61 629.56 211.13 621.07 203.65 612.2 196.44 602.84 189.53 593.11 182.66 583.2 176.13 573.05 169.97 562.77 163.9 552.46 158.24 542.09 153.03 531.74 147.95 521.43 143.35 511.17 139.26 501 135.34 490.9 131.94 480.89 129.1 470.99 126.44 461.14 124.35 451.39 122.84 441.73 121.5 432.11 120.73 422.57 120.55 413.12 120.5 403.68 121.02 394.31 122.11 385.03 123.27 375.75 124.94 366.77 127.08 358.1 129.21 349.42 131.77 341.04 134.7 332.99 137.57 324.93 140.79 317.19 144.31 309.79 147.72 302.38 151.41 295.31 155.35 288.59 159.14 281.84 163.18 275.43 167.43 269.36 171.52 263.23 175.83 257.41 180.36 251.88 184.73 246.25 189.32 240.86 194.14 235.7 198.82 230.36 203.74 225.18 208.91 220.14 213.98 214.84 219.31 209.62 224.91 204.46 230.44 198.97 236.26 193.5 242.36 188.04 248.42 182.25 254.79 176.46 261.43 170.71 268.06 164.69 274.98 158.76 282.18 152.98 289.38 147.07 296.85 141.42 304.58 136.13 312.31 130.91 320.3 126.19 328.52 122.07 336.73 118.25 345.18 115.17 353.83 112.93 362.47 111.16 371.33 110.32 380.38 110.46" stroke-dasharray="5 1" transform="rotate(4.04, 400, 400)" opacity="0.46"></path><path d="M382.73 121.06C391.46 121.7 400.21 123.25 408.96 125.63 417.72 128.39 426.49 131.86 435.26 135.96 444.07 140.23 452.91 144.98 461.76 150.11 470.67 155.21 479.62 160.57 488.61 166.1 497.68 171.42 506.8 176.85 515.96 182.31 525.22 187.48 534.53 192.66 543.85 197.85 553.25 202.71 562.65 207.59 572 212.5 581.38 217.12 590.65 221.82 599.75 226.63 608.77 231.21 617.53 235.96 625.92 240.89 634.1 245.68 641.79 250.72 648.88 256.02 655.6 261.24 661.59 266.77 666.75 272.6 671.38 278.4 675.09 284.54 677.79 291 679.88 297.46 680.93 304.25 680.92 311.37 680.34 318.49 678.75 325.93 676.19 333.67 673.25 341.41 669.51 349.46 665.07 357.79 660.55 366.12 655.58 374.73 650.27 383.62 645.28 392.51 640.33 401.47 635.53 410.49 631.34 419.53 627.43 428.64 623.86 437.81 621.01 447.02 618.51 456.31 616.34 465.68 614.84 475.12 613.57 484.65 612.47 494.26 611.88 503.95 611.3 513.73 610.66 523.56 610.31 533.46 609.73 543.39 608.84 553.31 608.04 563.22 606.8 573.05 605.07 582.71 603.26 592.24 600.88 601.49 597.92 610.34 594.79 618.9 591.03 626.9 586.68 634.22 582.12 641.05 576.97 647.04 571.26 652.08 565.36 656.47 558.94 659.82 552.05 662.04 545.02 663.58 537.56 664.02 529.73 663.36 521.8 662.17 513.54 660.06 505 657.11 496.42 654.01 487.58 650.37 478.55 646.39 469.5 642.74 460.28 639.1 450.91 635.66 441.54 633.06 432.04 630.96 422.44 629.47 412.84 629.12 403.36 629.46 394.03 630.45 384.69 632.45 375.48 634.86 366.42 637.56 357.35 640.86 348.41 644.09 339.62 647.09 330.8 650.2 322.11 652.74 313.57 654.58 304.99 656.1 296.55 656.7 288.25 656.31 279.92 655.35 271.73 653.33 263.71 650.27 255.65 646.57 247.77 641.87 240.08 636.27 232.38 630.11 224.88 623.16 217.63 615.54 210.39 607.53 203.42 598.98 196.75 590.02 190.13 580.84 183.85 571.37 177.93 561.7 172.11 551.95 166.69 542.09 161.71 532.19 156.86 522.29 152.47 512.4 148.59 502.56 144.86 492.76 141.65 483.02 138.98 473.38 136.48 463.78 134.53 454.26 133.15 444.85 131.92 435.47 131.25 426.18 131.15 416.99 131.18 407.82 131.76 398.74 132.89 389.76 134.09 380.79 135.78 372.13 137.91 363.78 140.05 355.43 142.59 347.39 145.5 339.67 148.35 331.94 151.53 324.53 155.01 317.44 158.37 310.34 162.01 303.55 165.89 297.09 169.62 290.59 173.59 284.39 177.77 278.49 181.79 272.52 186.03 266.82 190.46 261.38 194.74 255.81 199.24 250.44 203.94 245.27 208.51 239.91 213.3 234.67 218.32 229.55 223.24 224.18 228.4 218.86 233.8 213.59 239.13 208.03 244.73 202.47 250.59 196.94 256.4 191.1 262.49 185.3 268.84 179.55 275.17 173.57 281.78 167.7 288.66 162.01 295.52 156.23 302.65 150.73 310.03 145.59 317.4 140.55 325.03 136.01 332.89 132.07 340.75 128.42 348.84 125.49 357.15 123.37 365.45 121.69 373.98 120.91 382.72 121.06" stroke-dasharray="1 7" transform="rotate(8.08, 400, 400)" opacity="0.68"></path><path d="M385.65 131.65C394.08 132.27 402.55 133.76 411.03 136.04 419.53 138.68 428.06 142.01 436.6 145.94 445.19 150.06 453.81 154.66 462.45 159.64 471.15 164.61 479.9 169.86 488.67 175.3 497.52 180.57 506.41 185.97 515.32 191.42 524.3 196.62 533.31 201.85 542.3 207.09 551.35 212.04 560.35 217.01 569.27 222 578.18 226.72 586.94 231.5 595.49 236.37 603.94 241.01 612.09 245.78 619.85 250.71 627.38 255.48 634.41 260.46 640.85 265.67 646.92 270.77 652.29 276.14 656.86 281.79 660.95 287.38 664.16 293.27 666.44 299.47 668.18 305.64 668.95 312.12 668.76 318.92 668.06 325.7 666.45 332.8 663.96 340.2 661.15 347.6 657.6 355.3 653.41 363.29 649.17 371.28 644.49 379.56 639.49 388.14 634.78 396.72 630.07 405.39 625.48 414.15 621.43 422.92 617.6 431.78 614.05 440.72 611.15 449.69 608.54 458.76 606.21 467.9 604.5 477.09 602.98 486.37 601.63 495.72 600.75 505.11 599.9 514.56 599.01 524.03 598.42 533.53 597.64 543.01 596.61 552.42 595.7 561.78 594.41 571 592.71 580 590.98 588.82 588.75 597.32 586.01 605.37 583.14 613.1 579.71 620.26 575.74 626.74 571.6 632.73 566.92 637.92 561.71 642.2 556.34 645.88 550.48 648.59 544.15 650.28 537.7 651.37 530.83 651.47 523.57 650.6 516.23 649.29 508.55 647.17 500.57 644.34 492.54 641.4 484.25 638.02 475.73 634.34 467.19 631.01 458.45 627.69 449.54 624.55 440.62 622.19 431.55 620.27 422.35 618.87 413.15 618.52 404.04 618.78 395.05 619.6 386.05 621.34 377.15 623.46 368.38 625.84 359.6 628.8 350.93 631.72 342.38 634.45 333.82 637.33 325.37 639.74 317.06 641.55 308.72 643.13 300.5 643.91 292.42 643.81 284.32 643.25 276.36 641.73 268.57 639.26 260.75 636.23 253.1 632.28 245.65 627.46 238.2 622.14 230.95 616.04 223.95 609.27 216.98 602.12 210.27 594.4 203.86 586.24 197.51 577.83 191.49 569.08 185.83 560.09 180.27 550.97 175.1 541.7 170.36 532.33 165.75 522.93 161.59 513.49 157.92 504.06 154.4 494.64 151.38 485.26 148.88 475.95 146.55 466.66 144.74 457.44 143.48 448.33 142.37 439.23 141.8 430.22 141.77 421.33 141.88 412.44 142.5 403.66 143.66 394.99 144.9 386.32 146.6 377.97 148.73 369.93 150.86 361.89 153.38 354.15 156.26 346.73 159.08 339.29 162.22 332.15 165.64 325.33 168.96 318.48 172.54 311.92 176.36 305.66 180.04 299.35 183.94 293.31 188.05 287.54 192.01 281.69 196.17 276.06 200.52 270.65 204.72 265.11 209.13 259.74 213.73 254.53 218.19 249.13 222.87 243.83 227.75 238.62 232.53 233.17 237.54 227.77 242.77 222.4 247.92 216.77 253.32 211.15 258.96 205.57 264.54 199.72 270.39 193.92 276.48 188.2 282.54 182.29 288.87 176.52 295.44 170.94 302 165.31 308.81 159.98 315.87 155.02 322.92 150.17 330.21 145.82 337.75 142.05 345.27 138.58 353.03 135.8 361.01 133.8 368.99 132.22 377.2 131.49 385.64 131.65" stroke-dasharray="7 2" transform="rotate(12.12, 400, 400)" opacity="0.98"></path><path d="M389.05 142.24C397.18 142.84 405.36 144.26 413.58 146.44 421.8 148.96 430.07 152.14 438.38 155.91 446.71 159.87 455.08 164.29 463.49 169.11 471.94 173.94 480.43 179.06 488.95 184.38 497.52 189.58 506.12 194.92 514.73 200.34 523.38 205.54 532.03 210.79 540.64 216.07 549.27 221.08 557.83 226.12 566.27 231.18 574.67 235.99 582.89 240.85 590.87 245.78 598.72 250.49 606.25 255.31 613.38 260.26 620.26 265.04 626.65 270 632.45 275.15 637.91 280.18 642.68 285.45 646.71 290.95 650.29 296.39 653.05 302.09 654.95 308.08 656.37 314.02 656.91 320.25 656.55 326.77 655.78 333.27 654.17 340.08 651.76 347.17 649.07 354.26 645.72 361.64 641.78 369.32 637.8 376.99 633.41 384.96 628.72 393.23 624.27 401.5 619.81 409.88 615.43 418.35 611.52 426.83 607.79 435.41 604.28 444.08 601.35 452.77 598.65 461.55 596.19 470.4 594.29 479.28 592.57 488.23 590.98 497.23 589.85 506.24 588.74 515.28 587.61 524.3 586.78 533.31 585.8 542.26 584.62 551.09 583.57 559.84 582.22 568.39 580.51 576.67 578.8 584.75 576.67 592.47 574.08 599.71 571.42 606.63 568.26 612.97 564.6 618.62 558.68 626.04 544.19 635.96 535.7 638.25 529.78 638.97 523.45 638.8 516.74 637.76 509.95 636.39 502.82 634.31 495.38 631.6 487.89 628.86 480.13 625.73 472.12 622.36 464.08 619.33 455.83 616.32 447.38 613.47 438.93 611.33 430.3 609.58 421.52 608.28 412.74 607.93 404.01 608.1 395.37 608.77 386.73 610.27 378.16 612.12 369.7 614.19 361.23 616.82 352.85 619.43 344.58 621.89 336.3 624.54 328.12 626.79 320.06 628.53 311.99 630.12 304.03 631.01 296.2 631.14 288.36 630.9 280.66 629.8 273.11 627.84 265.57 625.42 258.18 622.13 250.99 618.04 243.82 613.49 236.85 608.2 230.12 602.25 223.43 595.92 217 589.04 210.87 581.67 204.81 574.06 199.07 566.07 193.68 557.79 188.39 549.37 183.49 540.74 179 531.97 174.64 523.13 170.72 514.22 167.26 505.27 163.95 496.31 161.12 487.35 158.8 478.43 156.63 469.53 154.97 460.67 153.83 451.89 152.84 443.13 152.36 434.44 152.41 425.86 152.58 417.29 153.26 408.81 154.44 400.46 155.7 392.1 157.4 384.04 159.52 376.29 161.64 368.54 164.14 361.08 166.97 353.92 169.75 346.74 172.85 339.85 176.21 333.24 179.48 326.6 183 320.23 186.75 314.13 190.38 307.96 194.22 302.04 198.25 296.36 202.15 290.57 206.23 284.99 210.51 279.59 214.63 274.05 218.95 268.66 223.45 263.39 227.82 257.94 232.39 252.58 237.16 247.29 241.81 241.77 246.68 236.3 251.76 230.86 256.75 225.18 261.97 219.53 267.42 213.93 272.8 208.1 278.42 202.34 284.28 196.68 290.1 190.87 296.17 185.22 302.47 179.78 308.75 174.32 315.27 169.17 322.04 164.4 328.78 159.76 335.77 155.61 342.99 152.03 350.2 148.74 357.65 146.12 365.33 144.24 373 142.75 380.9 142.07 389.04 142.24" stroke-dasharray="5 5" transform="rotate(16.16, 400, 400)" opacity="0.66"></path><path d="M392.81 152.83C400.65 153.41 408.54 154.77 416.47 156.84 424.42 159.23 432.41 162.27 440.44 165.86 448.49 169.64 456.59 173.89 464.72 178.52 472.88 183.2 481.08 188.16 489.29 193.35 497.54 198.45 505.81 203.7 514.06 209.06 522.33 214.24 530.58 219.48 538.76 224.76 546.93 229.82 555 234.91 562.92 240.02 570.79 244.91 578.44 249.84 585.83 254.83 593.08 259.61 599.99 264.49 606.48 269.47 612.74 274.28 618.5 279.24 623.69 284.36 628.56 289.36 632.78 294.55 636.29 299.96 639.41 305.28 641.76 310.85 643.32 316.66 644.46 322.42 644.79 328.44 644.32 334.74 643.48 341 641.88 347.54 639.56 354.37 637.02 361.17 633.86 368.27 630.16 375.65 626.44 383.02 622.34 390.69 617.94 398.64 613.76 406.6 609.54 414.67 605.37 422.83 601.61 431 597.98 439.27 594.53 447.62 591.59 455.98 588.84 464.42 586.28 472.91 584.23 481.42 582.32 489.98 580.53 498.54 579.16 507.11 577.82 515.67 576.46 524.16 575.4 532.62 574.22 540.98 572.87 549.17 571.68 557.24 570.23 565.09 568.48 572.62 566.77 579.95 564.69 586.88 562.21 593.32 558.22 602.22 547.89 616.21 541.53 621.02 534.58 624.34 518.43 626.2 509.31 624.87 503.04 623.48 496.43 621.46 489.5 618.91 482.53 616.37 475.28 613.51 467.77 610.43 460.23 607.7 452.46 604.99 444.49 602.41 436.5 600.49 428.32 598.89 419.96 597.69 411.61 597.34 403.29 597.43 395.02 597.96 386.76 599.25 378.55 600.83 370.41 602.62 362.28 604.92 354.22 607.23 346.25 609.42 338.28 611.82 330.4 613.89 322.62 615.53 314.84 617.08 307.16 618.04 299.62 618.33 292.07 618.33 284.65 617.58 277.39 616.06 270.13 614.15 263.04 611.46 256.14 608.02 249.27 604.18 242.6 599.63 236.16 594.45 229.78 588.93 223.65 582.84 217.81 576.27 212.05 569.45 206.6 562.23 201.5 554.69 196.5 546.99 191.87 539.04 187.64 530.91 183.54 522.7 179.86 514.37 176.62 505.96 173.53 497.52 170.9 489.05 168.75 480.58 166.75 472.11 165.23 463.66 164.21 455.27 163.34 446.89 162.95 438.56 163.07 430.32 163.3 422.09 164.02 413.94 165.22 405.9 166.49 397.85 168.2 390.1 170.29 382.63 172.39 375.15 174.85 367.95 177.64 361.02 180.38 354.08 183.42 347.39 186.72 340.98 189.93 334.51 193.4 328.3 197.07 322.32 200.64 316.27 204.41 310.43 208.37 304.8 212.2 299.06 216.22 293.5 220.41 288.09 224.46 282.55 228.7 277.12 233.11 271.8 237.39 266.31 241.86 260.88 246.52 255.52 251.06 249.96 255.8 244.44 260.74 238.96 265.58 233.27 270.64 227.62 275.91 222.02 281.12 216.25 286.54 210.56 292.19 204.99 297.79 199.31 303.62 193.8 309.68 188.54 315.7 183.27 321.96 178.32 328.45 173.76 334.92 169.33 341.62 165.39 348.55 162.01 355.46 158.9 362.61 156.43 369.99 154.67 377.36 153.29 384.97 152.66 392.8 152.83" stroke-dasharray="0 1" transform="rotate(20.200000000000003, 400, 400)" opacity="0.90"></path><path d="M396.82 163.42C404.36 163.98 411.95 165.27 419.59 167.23 427.23 169.5 434.93 172.38 442.66 175.79 450.41 179.4 458.21 183.45 466.02 187.89 473.86 192.39 481.72 197.19 489.58 202.22 497.47 207.19 505.35 212.33 513.2 217.6 521.05 222.71 528.85 227.92 536.56 233.18 544.24 238.24 551.8 243.35 559.17 248.5 566.48 253.44 573.55 258.42 580.34 263.46 586.98 268.31 593.27 273.23 599.15 278.24 604.8 283.09 609.96 288.07 614.58 293.18 618.89 298.16 622.6 303.32 625.64 308.65 629.32 316.63 632.55 333.57 632.06 342.6 631.17 348.66 629.61 354.97 627.39 361.55 624.99 368.11 622.03 374.94 618.57 382.03 615.11 389.12 611.28 396.48 607.16 404.13 603.24 411.77 599.26 419.51 595.3 427.34 591.7 435.17 588.19 443.09 584.81 451.07 581.88 459.06 579.1 467.11 576.47 475.19 574.29 483.27 572.23 491.37 570.27 499.45 568.69 507.51 567.14 515.52 565.58 523.44 564.3 531.29 562.92 539.01 561.41 546.52 560.07 553.9 558.51 561.02 556.69 567.8 554.95 574.37 552.88 580.52 550.48 586.18 546.66 593.95 537 605.87 531.11 609.8 524.7 612.41 509.81 613.43 501.38 611.96 495.59 610.58 489.46 608.66 483.03 606.29 476.55 603.96 469.79 601.36 462.76 598.57 455.71 596.12 448.42 593.69 440.91 591.37 433.38 589.65 425.65 588.21 417.74 587.1 409.82 586.75 401.91 586.78 394.04 587.17 386.17 588.26 378.33 589.6 370.55 591.11 362.78 593.12 355.06 595.13 347.42 597.05 339.79 599.2 332.23 601.07 324.76 602.57 317.3 604.06 309.94 605.02 302.7 605.42 295.47 605.61 288.37 605.13 281.41 603.97 274.48 602.49 267.71 600.31 261.12 597.45 254.57 594.24 248.22 590.38 242.1 585.91 236.04 581.14 230.23 575.81 224.71 570.01 219.26 563.96 214.12 557.5 209.31 550.7 204.61 543.74 200.26 536.5 196.3 529.04 192.46 521.49 189.02 513.77 186.01 505.95 183.14 498.08 180.71 490.14 178.73 482.17 176.9 474.18 175.53 466.19 174.63 458.22 173.86 450.25 173.56 442.32 173.75 434.45 174.03 426.58 174.78 418.78 176 411.06 177.28 403.34 178.97 395.88 181.04 388.68 183.11 381.47 185.53 374.51 188.26 367.81 190.95 361.08 193.93 354.59 197.16 348.33 200.31 342.02 203.71 335.93 207.31 330.05 210.81 324.1 214.51 318.33 218.39 312.73 222.15 307.04 226.09 301.48 230.2 296.06 234.18 290.51 238.34 285.05 242.66 279.69 246.86 274.16 251.23 268.7 255.78 263.3 260.22 257.72 264.84 252.17 269.65 246.68 274.36 241.02 279.28 235.4 284.38 229.86 289.42 224.17 294.67 218.59 300.12 213.14 305.52 207.62 311.14 202.29 316.97 197.21 322.76 192.16 328.77 187.43 335.01 183.09 341.21 178.89 347.65 175.17 354.3 171.98 360.94 169.06 367.8 166.75 374.89 165.11 381.96 163.82 389.27 163.25 396.81 163.42" stroke-dasharray="8 8" transform="rotate(24.24, 400, 400)" opacity="0.77"></path><path d="M400.93 174.02C408.16 174.55 415.45 175.77 422.77 177.62 430.11 179.76 437.49 182.48 444.89 185.71 452.31 189.13 459.77 192.99 467.23 197.22 474.71 201.53 482.21 206.13 489.68 210.98 497.17 215.8 504.63 220.81 512.03 225.95 519.43 230.98 526.75 236.11 533.95 241.32 541.12 246.36 548.14 251.46 554.95 256.6 561.68 261.57 568.17 266.58 574.36 271.65 580.41 276.54 586.1 281.5 591.38 286.53 596.44 291.42 601.04 296.41 605.11 301.51 610.53 309.06 617.89 324.78 619.71 333.02 620.4 338.52 620.42 344.23 619.77 350.15 618.87 356.04 617.35 362.15 615.25 368.5 612.99 374.83 610.22 381.4 607 388.22 603.78 395.03 600.22 402.09 596.38 409.41 592.72 416.72 588.98 424.12 585.22 431.59 581.79 439.06 578.4 446.6 575.11 454.18 572.21 461.75 569.42 469.37 566.75 476.98 564.47 484.59 562.29 492.19 560.18 499.73 558.42 507.24 556.69 514.66 554.94 521.96 553.47 529.18 551.91 536.22 550.24 543.03 548.75 549.71 547.07 556.1 545.18 562.13 542.33 570.66 535.23 585 530.85 590.57 526.08 595.04 514.64 600.23 507.97 600.91 500.86 600.57 484.87 596.81 476.06 593.72 470.04 591.62 463.75 589.27 457.19 586.77 450.61 584.6 443.78 582.43 436.73 580.36 429.67 578.83 422.39 577.53 414.92 576.51 407.45 576.16 399.97 576.13 392.5 576.41 385.04 577.31 377.59 578.42 370.19 579.68 362.8 581.4 355.45 583.12 348.16 584.78 340.88 586.67 333.67 588.33 326.55 589.68 319.44 591.06 312.42 592 305.52 592.45 298.63 592.75 291.87 592.48 285.25 591.61 278.66 590.49 272.22 588.74 265.97 586.38 259.77 583.73 253.76 580.47 247.98 576.65 242.26 572.56 236.78 567.95 231.58 562.86 226.46 557.56 221.64 551.84 217.13 545.76 212.74 539.53 208.68 532.99 204.98 526.21 201.41 519.34 198.23 512.27 195.44 505.05 192.79 497.78 190.56 490.41 188.75 482.97 187.09 475.5 185.85 468 185.07 460.49 184.42 452.97 184.2 445.46 184.44 437.98 184.78 430.51 185.56 423.07 186.78 415.68 188.06 408.3 189.74 401.14 191.76 394.21 193.81 387.28 196.18 380.56 198.84 374.06 201.48 367.55 204.38 361.23 207.54 355.12 210.62 348.96 213.94 342.99 217.46 337.19 220.88 331.33 224.5 325.62 228.3 320.06 231.99 314.4 235.85 308.86 239.87 303.43 243.78 297.88 247.85 292.41 252.08 287.03 256.2 281.5 260.48 276.02 264.92 270.61 269.26 265.04 273.77 259.51 278.45 254.05 283.05 248.44 287.82 242.9 292.78 237.44 297.67 231.88 302.75 226.44 308.01 221.15 313.23 215.82 318.65 210.69 324.26 205.83 329.84 201.01 335.62 196.51 341.61 192.4 347.58 188.44 353.75 184.94 360.14 181.95 366.51 179.22 373.09 177.07 379.89 175.55 386.68 174.35 393.69 173.83 400.92 174.01" stroke-dasharray="5 2" transform="rotate(28.28, 400, 400)" opacity="0.12"></path><path d="M405.02 184.61C411.93 185.12 418.9 186.26 425.89 188.01 432.9 190.02 439.94 192.57 446.99 195.62 454.06 198.84 461.15 202.49 468.23 206.51 475.33 210.61 482.42 215.01 489.47 219.66 496.52 224.3 503.53 229.14 510.47 234.13 517.38 239.04 524.2 244.07 530.88 249.18 537.51 254.16 543.97 259.22 550.22 264.32 556.38 269.28 562.29 274.29 567.89 279.35 573.35 284.26 578.46 289.24 583.17 294.28 587.68 299.19 591.75 304.18 595.32 309.27 600.04 316.8 606.31 332.37 607.76 340.47 608.22 348.66 605.85 365.89 603.13 374.98 601.01 381.09 598.44 387.42 595.45 393.96 592.47 400.49 589.17 407.25 585.6 414.23 582.19 421.21 578.68 428.26 575.14 435.34 571.87 442.43 568.62 449.55 565.44 456.69 562.59 463.83 559.81 470.97 557.12 478.09 554.78 485.19 552.5 492.24 550.28 499.21 548.37 506.13 546.48 512.95 544.58 519.6 542.92 526.17 541.2 532.53 539.39 538.64 536.85 547.46 531.04 563.08 527.63 569.67 519.63 579.6 504.53 587.82 498.32 588.17 491.72 587.67 476.9 584.06 468.71 581.24 463.13 579.35 457.28 577.27 451.17 575.04 445.04 573.13 438.66 571.22 432.06 569.38 425.45 568.02 418.62 566.86 411.6 565.92 404.58 565.57 397.53 565.49 390.48 565.67 383.44 566.39 376.4 567.29 369.4 568.32 362.4 569.77 355.43 571.22 348.53 572.62 341.63 574.25 334.79 575.69 328.04 576.88 321.3 578.12 314.65 579 308.11 579.46 301.59 579.82 295.19 579.69 288.93 579.04 282.7 578.21 276.63 576.81 270.74 574.87 264.9 572.7 259.25 569.97 253.82 566.73 248.45 563.26 243.32 559.29 238.46 554.87 233.68 550.25 229.18 545.23 224.99 539.85 220.9 534.32 217.13 528.48 213.71 522.37 210.41 516.17 207.48 509.75 204.92 503.15 202.49 496.5 200.45 489.71 198.82 482.82 197.32 475.91 196.22 468.92 195.55 461.89 195 454.85 194.86 447.78 195.15 440.72 195.54 433.65 196.34 426.59 197.56 419.55 198.84 412.52 200.48 405.67 202.47 399.02 204.47 392.36 206.78 385.88 209.37 379.59 211.94 373.28 214.77 367.14 217.84 361.18 220.85 355.17 224.08 349.31 227.51 343.6 230.85 337.84 234.39 332.19 238.09 326.67 241.7 321.06 245.47 315.55 249.4 310.14 253.23 304.61 257.21 299.16 261.34 293.78 265.37 288.28 269.56 282.83 273.89 277.43 278.14 271.92 282.54 266.45 287.1 261.06 291.57 255.55 296.22 250.12 301.03 244.8 305.77 239.4 310.69 234.13 315.78 229.03 320.83 223.92 326.05 219.02 331.47 214.39 336.84 209.82 342.4 205.57 348.16 201.7 353.89 197.99 359.82 194.71 365.94 191.93 372.05 189.39 378.36 187.39 384.87 185.99 391.38 184.89 398.09 184.42 405.01 184.61" stroke-dasharray="5 11" transform="rotate(32.32, 400, 400)" opacity="0.89"></path><path d="M408.93 195.2C415.52 195.68 422.15 196.76 428.8 198.39 435.46 200.27 442.14 202.66 448.82 205.52 455.52 208.55 462.21 211.98 468.89 215.77 475.57 219.65 482.23 223.83 488.83 228.26 495.43 232.7 501.97 237.35 508.41 242.16 514.82 246.91 521.12 251.8 527.26 256.78 533.35 261.67 539.26 266.64 544.95 271.67 550.54 276.58 555.88 281.56 560.91 286.58 565.81 291.48 570.36 296.44 574.53 301.46 578.53 306.36 582.1 311.34 585.2 316.4 589.3 323.89 594.6 339.29 595.73 347.25 595.99 355.27 593.6 372.03 591.03 380.81 589.07 386.7 586.69 392.78 583.93 399.04 581.18 405.29 578.13 411.74 574.82 418.37 571.65 425 568.37 431.67 565.04 438.35 561.95 445.03 558.85 451.73 555.78 458.4 553 465.07 550.26 471.72 547.57 478.31 545.19 484.87 542.85 491.36 540.55 497.74 538.52 504.07 536.5 510.26 534.47 516.26 531.73 525.03 526.12 541.1 523.11 548.22 516.56 559.96 504.6 572.13 499.68 574.1 494.46 575.23 482.5 574.75 475.78 573.27 468.72 571.37 453.22 566.25 444.82 563.38 439.11 561.71 433.17 560.03 427.01 558.41 420.85 557.23 414.47 556.19 407.89 555.32 401.31 554.99 394.7 554.86 388.09 554.94 381.47 555.51 374.86 556.22 368.26 557.03 361.68 558.22 355.12 559.42 348.61 560.57 342.12 561.95 335.68 563.17 329.31 564.18 322.97 565.27 316.7 566.05 310.55 566.48 304.42 566.86 298.4 566.81 292.52 566.32 283.84 565.14 267.37 560.08 259.66 556.2 254.66 553.26 249.89 549.87 245.37 546.06 240.94 542.07 236.77 537.7 232.89 532.97 229.12 528.1 225.65 522.92 222.51 517.47 219.47 511.92 216.78 506.14 214.46 500.16 212.24 494.13 210.4 487.93 208.94 481.6 207.59 475.24 206.63 468.78 206.07 462.24 205.61 455.7 205.55 449.09 205.89 442.46 206.31 435.82 207.12 429.15 208.34 422.48 209.6 415.81 211.22 409.28 213.15 402.92 215.1 396.54 217.34 390.32 219.86 384.24 222.35 378.15 225.1 372.2 228.07 366.38 231 360.53 234.13 354.8 237.46 349.2 240.71 343.54 244.15 337.98 247.75 332.52 251.27 326.98 254.95 321.53 258.78 316.15 262.52 310.69 266.41 305.29 270.43 299.95 274.37 294.51 278.46 289.13 282.68 283.8 286.82 278.38 291.11 273.02 295.54 267.74 299.9 262.38 304.41 257.1 309.08 251.95 313.68 246.74 318.44 241.68 323.37 236.81 328.24 231.94 333.29 227.29 338.5 222.91 343.67 218.6 349.03 214.62 354.55 211 360.06 207.53 365.74 204.49 371.6 201.91 377.45 199.56 383.49 197.72 389.71 196.44 395.92 195.43 402.33 195.01 408.92 195.2" stroke-dasharray="5 4" transform="rotate(36.36, 400, 400)" opacity="0.19"></path><path d="M412.55 205.79C418.8 206.25 425.08 207.26 431.37 208.78 437.67 210.53 443.97 212.75 450.26 215.41 462.86 221.21 475.4 228.45 487.68 236.79 499.92 245.24 511.8 254.44 523.07 264.14 534.11 273.56 544.33 283.33 553.42 293.32 562.02 302.9 569.24 312.75 574.8 322.83 579.62 332.58 582.62 342.71 583.63 353.22 583.93 363.55 582.36 374.41 578.97 385.8 577.16 391.47 574.97 397.29 572.43 403.26 569.91 409.23 567.1 415.35 564.04 421.62 561.11 427.9 558.06 434.17 554.94 440.44 552.02 446.7 549.08 452.94 546.13 459.13 541 471.5 535.93 483.61 530.98 495.22 526.99 506.64 522.92 517.33 518.65 527 515 536.2 510.82 544.1 506 550.38 501.42 555.97 495.94 559.79 489.5 561.69 483.07 562.97 475.57 562.51 467.05 560.47 458.46 558.43 448.84 555.41 438.28 551.78 432.98 550.34 427.46 548.89 421.73 547.47 415.99 546.44 410.05 545.52 403.92 544.73 397.78 544.4 391.61 544.24 385.43 544.24 379.25 544.67 373.07 545.2 366.9 545.82 354.59 548.05 342.38 550.09 330.44 551.61 318.6 553.52 307.08 554.23 296.08 553.51 285.24 552.45 275 549.65 265.55 545.15 256.37 540.05 248.07 533.31 240.87 525.16 234.04 516.55 228.37 506.75 224.06 496.04 220.16 485.12 217.64 473.51 216.62 461.45 216.26 455.41 216.26 449.28 216.64 443.08 217.1 436.88 217.92 430.62 219.12 424.32 220.36 418.03 221.94 411.84 223.81 405.77 225.7 399.69 227.87 393.73 230.3 387.89 235.1 376.15 240.83 364.82 247.3 353.89 253.55 342.8 260.49 331.98 267.99 321.47 275.18 310.67 282.96 300.06 291.24 289.73 299.22 279.11 307.78 268.77 316.87 258.91 325.73 248.96 335.21 239.69 345.27 231.4 355.19 223.46 365.78 216.84 377 211.9 382.59 209.74 388.35 208.06 394.27 206.89 400.19 205.98 406.28 205.6 412.54 205.79" stroke-dasharray="4 8" transform="rotate(40.400000000000006, 400, 400)" opacity="0.35"></path><path d="M415.74 216.38C427.56 217.48 439.42 220.54 451.18 225.3 462.95 230.68 474.6 237.44 485.93 245.26 497.2 253.24 508.05 262 518.26 271.27 528.23 280.37 537.38 289.86 545.43 299.58 553.04 309 559.35 318.67 564.11 328.56 568.26 338.17 570.76 348.1 571.48 358.33 571.62 368.4 570.09 378.91 566.95 389.82 563.59 400.68 558.96 412.04 553.26 423.84 547.98 435.63 542.31 447.33 536.5 458.75 531.52 470.13 526.52 481.16 521.57 491.59 517.44 501.84 513.2 511.32 508.77 519.75 504.91 527.78 500.61 534.55 495.75 539.83 491.16 544.54 485.79 547.67 479.62 549.11 473.48 550.1 466.42 549.59 458.45 547.73 450.43 545.98 441.49 543.39 431.69 540.25 421.86 538.07 411.2 535.96 399.81 534.14 388.43 533.91 376.9 534.13 365.42 534.67 353.98 536.44 342.62 538.03 331.53 539.17 320.54 540.74 309.85 541.31 299.67 540.67 289.66 539.83 280.21 537.49 271.53 533.65 263.09 529.37 255.51 523.59 248.95 516.49 242.72 509.01 237.6 500.36 233.73 490.79 230.24 481.03 228.03 470.51 227.21 459.45 226.73 448.35 227.6 436.81 229.89 424.99 232.37 413.17 236.04 401.64 240.69 390.46 245.32 379.24 250.82 368.29 257.05 357.67 263.08 346.92 269.78 336.37 277.02 326.09 284.01 315.59 291.54 305.28 299.55 295.25 307.31 285.02 315.59 275.12 324.36 265.72 332.93 256.32 342.05 247.61 351.7 239.88 361.23 232.52 371.35 226.42 382.03 221.9 392.66 218.16 403.91 216.25 415.73 216.38" stroke-dasharray="2 3" transform="rotate(44.44, 400, 400)" opacity="0.34"></path><path d="M418.41 226.97C429.5 227.99 440.58 230.81 451.5 235.19 462.42 240.15 473.15 246.41 483.52 253.68 493.81 261.16 503.65 269.41 512.81 278.21 521.77 286.91 529.89 296.02 536.97 305.4 543.65 314.55 549.12 323.96 553.19 333.57 556.74 342.96 558.81 352.62 559.29 362.51 559.32 372.28 557.86 382.38 554.95 392.78 551.9 403.14 547.7 413.87 542.48 424.9 537.63 435.93 532.35 446.73 526.88 457.18 522.09 467.58 517.21 477.54 512.3 486.84 508.1 495.98 503.75 504.31 499.23 511.62 495.21 518.58 490.8 524.36 485.94 528.78 481.33 532.76 476.07 535.32 470.12 536.42 464.24 537.22 457.56 536.74 450.08 535.1 442.59 533.64 434.28 531.46 425.2 528.79 416.09 526.98 406.24 525.18 395.71 523.55 385.19 523.29 374.54 523.33 363.93 523.6 353.37 524.95 342.89 526.11 332.66 526.88 322.53 528.11 312.7 528.49 303.36 527.85 294.17 527.14 285.54 525.14 277.62 521.83 269.94 518.21 263.06 513.25 257.13 507.06 251.52 500.58 246.92 492.99 243.49 484.48 240.38 475.79 238.47 466.32 237.84 456.25 237.51 446.12 238.43 435.48 240.67 424.46 243.08 413.44 246.6 402.56 251.04 391.93 255.47 381.26 260.74 370.78 266.68 360.54 272.48 350.2 278.92 340.01 285.87 330.06 292.61 319.95 299.87 310.03 307.58 300.4 315.08 290.66 323.07 281.27 331.49 272.4 339.75 263.6 348.51 255.5 357.72 248.35 366.84 241.58 376.48 236.02 386.6 231.92 396.69 228.53 407.31 226.81 418.41 226.97" stroke-dasharray="2 3" transform="rotate(48.48, 400, 400)" opacity="0.98"></path><path d="M420.46 237.57C430.81 238.5 441.08 241.08 451.14 245.09 461.19 249.62 471 255.37 480.4 262.08 489.73 269.02 498.57 276.73 506.74 284.98 514.7 293.21 521.87 301.87 528.04 310.81 533.88 319.6 538.6 328.66 542.04 337.89 545.07 346.97 546.77 356.28 547.07 365.77 547.02 375.16 545.65 384.8 543 394.64 540.24 404.45 536.44 414.52 531.71 424.76 527.27 434.99 522.39 444.92 517.26 454.4 512.7 463.84 507.98 472.76 503.17 481 498.95 489.09 494.57 496.37 490 502.66 485.88 508.69 481.42 513.61 476.57 517.3 469.38 521.74 452.25 524.16 442.07 522.58 435.06 521.41 427.33 519.63 418.94 517.39 410.52 515.93 401.44 514.41 391.76 512.96 382.08 512.67 372.3 512.57 362.57 512.59 352.88 513.56 343.28 514.34 333.93 514.76 324.67 515.65 315.71 515.81 307.22 515.11 298.86 514.44 291.03 512.67 283.88 509.77 276.95 506.67 270.76 502.38 265.46 496.99 260.43 491.38 256.34 484.73 253.33 477.18 250.61 469.49 248.97 461.01 248.52 451.88 248.32 442.7 249.28 432.95 251.45 422.74 253.78 412.53 257.13 402.36 261.35 392.33 265.56 382.28 270.57 372.32 276.22 362.54 281.75 352.69 287.89 342.96 294.53 333.44 300.99 323.82 307.95 314.38 315.33 305.26 322.53 296.08 330.19 287.27 338.24 279 346.15 270.85 354.51 263.39 363.27 256.85 371.95 250.68 381.08 245.64 390.63 241.95 400.14 238.9 410.1 237.38 420.46 237.57" stroke-dasharray="9 6" transform="rotate(52.52, 400, 400)" opacity="0.36"></path><path d="M421.82 248.16C431.41 249.02 440.85 251.35 450.05 254.98 459.22 259.09 468.11 264.32 476.57 270.46 484.95 276.83 492.83 283.95 500.04 291.61 507.08 299.29 513.35 307.43 518.69 315.85 523.76 324.19 527.81 332.8 530.71 341.57 533.29 350.25 534.69 359.12 534.85 368.12 534.74 377.05 533.48 386.17 531.08 395.4 528.62 404.62 525.21 413.99 520.93 423.42 516.9 432.85 512.41 441.9 507.65 450.44 503.34 458.95 498.82 466.89 494.16 474.14 490 481.27 485.64 487.6 481.09 493.01 474.7 500.31 460.57 509.31 452.52 510.94 447.09 511.59 441.08 511.31 434.51 510.19 427.95 509.32 420.78 507.9 413.03 506.07 405.27 504.91 396.93 503.64 388.08 502.36 379.23 502.06 370.3 501.84 361.44 501.66 352.62 502.29 343.9 502.72 335.43 502.82 327.04 503.37 318.94 503.3 311.29 502.51 303.76 501.81 296.73 500.18 290.34 497.59 284.14 494.89 278.62 491.15 273.93 486.43 269.48 481.55 265.88 475.72 263.27 469.04 260.9 462.26 259.53 454.69 259.24 446.46 259.16 438.19 260.14 429.32 262.23 419.93 264.46 410.55 267.63 401.11 271.61 391.73 275.59 382.34 280.31 372.98 285.64 363.75 290.88 354.48 296.7 345.3 302.98 336.3 309.14 327.26 315.76 318.41 322.77 309.87 329.64 301.33 336.93 293.17 344.57 285.56 352.1 278.09 360.03 271.29 368.3 265.37 376.5 259.81 385.1 255.28 394.04 252.01 402.95 249.29 412.23 247.96 421.82 248.16" stroke-dasharray="1 9" transform="rotate(56.56, 400, 400)" opacity="0.15"></path><path d="M422.45 258.75C431.25 259.53 439.86 261.63 448.18 264.89 456.49 268.57 464.47 273.28 472.01 278.84 479.47 284.62 486.43 291.11 492.75 298.14 498.92 305.23 504.36 312.76 508.96 320.59 513.33 328.39 516.78 336.46 519.22 344.68 521.4 352.85 522.55 361.2 522.62 369.64 522.49 378.04 521.35 386.56 519.2 395.14 517.02 403.7 513.99 412.34 510.15 420.96 506.52 429.57 502.43 437.75 498.03 445.39 494 453 489.72 460.03 485.27 466.38 481.21 472.63 476.94 478.13 472.49 482.78 466.14 489.07 452.27 496.82 444.52 498.26 439.32 498.92 433.64 498.78 427.48 497.94 421.36 497.34 414.71 496.27 407.59 494.81 400.47 493.92 392.85 492.89 384.8 491.77 376.75 491.46 368.67 491.14 360.67 490.79 352.7 491.13 344.85 491.25 337.25 491.07 329.72 491.3 322.48 491 315.65 490.1 308.94 489.32 302.69 487.76 297.04 485.39 289.12 481.33 277.11 468.69 273.31 460.23 271.28 454.24 270.15 447.52 270 440.14 270.02 432.74 271.01 424.72 273.01 416.16 275.13 407.6 278.11 398.93 281.82 390.26 285.56 381.59 289.97 372.9 294.95 364.3 299.88 355.68 305.34 347.13 311.25 338.76 317.05 330.38 323.29 322.19 329.89 314.31 336.39 306.48 343.27 299.02 350.46 292.1 357.57 285.35 365.02 279.23 372.77 273.94 380.47 268.97 388.5 264.97 396.79 262.09 405.07 259.69 413.65 258.54 422.45 258.75" stroke-dasharray="5 10" transform="rotate(60.599999999999994, 400, 400)" opacity="0.45"></path><path d="M422.33 269.34C430.33 270.04 438.1 271.91 445.56 274.81 453 278.07 460.1 282.26 466.75 287.23 473.34 292.41 479.43 298.25 484.91 304.6 490.27 311.05 494.97 317.92 498.89 325.09 502.64 332.27 505.57 339.72 507.61 347.32 509.46 354.89 510.4 362.63 510.41 370.43 510.28 378.21 509.26 386.08 507.37 393.95 505.45 401.82 502.78 409.7 499.36 417.49 496.12 425.28 492.43 432.61 488.41 439.4 484.69 446.16 480.68 452.35 476.48 457.89 470.53 465.73 457.97 477.57 451.25 481.42 444.51 484.35 429.48 486.41 421.07 485.85 415.37 485.51 409.24 484.75 402.73 483.62 396.21 482.98 389.3 482.15 382.03 481.18 374.76 480.87 367.5 480.47 360.34 479.99 353.21 480.08 346.22 479.94 339.47 479.52 332.77 479.46 326.36 478.94 320.35 477.92 311.68 476.28 297.07 469.61 291.41 464.43 286.69 458.41 281.29 442.69 280.8 433.13 280.92 426.53 281.9 419.34 283.79 411.61 285.78 403.88 288.55 396 292 388.09 295.46 380.17 299.55 372.21 304.17 364.32 308.75 356.43 313.82 348.59 319.31 340.92 324.73 333.28 330.55 325.82 336.71 318.67 342.78 311.59 349.21 304.88 355.9 298.69 362.54 292.66 369.48 287.23 376.67 282.57 383.82 278.2 391.24 274.69 398.87 272.19 406.48 270.11 414.33 269.12 422.33 269.34" stroke-dasharray="6 9" transform="rotate(64.64, 400, 400)" opacity="0.58"></path><path d="M421.46 279.93C428.65 280.55 435.58 282.19 442.19 284.74 448.78 287.59 455.02 291.27 460.82 295.64 466.58 300.22 471.85 305.4 476.57 311.05 481.19 316.81 485.2 322.98 488.53 329.44 491.72 335.93 494.2 342.68 495.9 349.58 497.46 356.48 498.25 363.53 498.23 370.62 498.11 377.72 497.23 384.87 495.57 391.99 493.92 399.11 491.59 406.2 488.59 413.17 485.72 420.14 482.42 426.64 478.79 432.63 475.39 438.59 471.69 444 467.78 448.82 462.16 455.65 450.16 465.94 443.74 469.31 437.29 471.97 423.11 474.16 415.31 473.92 410.04 473.82 404.43 473.33 398.51 472.5 392.6 472.06 386.37 471.42 379.86 470.59 373.35 470.28 366.89 469.84 360.56 469.26 354.24 469.14 348.07 468.78 342.15 468.16 333.47 467.5 317.9 464.26 311.26 461.39 305.28 457.99 296.42 447.98 293.73 441.37 291.95 434.09 292.32 416.6 294.57 406.5 296.42 399.6 298.97 392.53 302.13 385.4 305.3 378.29 309.05 371.11 313.28 363.99 317.48 356.88 322.15 349.82 327.19 342.92 332.18 336.07 337.55 329.39 343.21 323.02 348.83 316.74 354.75 310.8 360.91 305.35 367.03 300.06 373.41 295.32 379.99 291.27 386.55 287.48 393.33 284.46 400.26 282.32 407.18 280.54 414.28 279.71 421.46 279.93" stroke-dasharray="11 5" transform="rotate(68.68, 400, 400)" opacity="0.31"></path><path d="M419.87 290.53C432.6 291.92 444.25 296.73 454.3 304.11 464.19 312.19 472.25 322.35 477.94 333.7 483.26 345.25 486.08 357.72 486.09 370.38 485.86 383.07 483.09 395.92 477.81 408.22 472.94 420.52 466.5 431.02 459.16 439.39 452.55 447.65 444.95 453.69 436.67 457.32 428.84 460.98 419.97 462.56 410.23 462.18 400.62 462.58 389.89 461.81 378.37 460 366.84 459.83 355.64 458.83 345.36 457.02 335.2 456.23 326.15 453.87 318.83 449.79 311.82 445.93 306.74 439.89 304.11 431.75 301.88 423.56 302.17 413.24 305.35 401.07 308.8 388.9 314.67 376.12 322.29 363.49 329.89 350.94 339.13 338.66 349.41 327.46 359.59 316.6 370.87 307.17 382.75 300.06 394.59 293.83 407.14 290.4 419.87 290.53" stroke-dasharray="5 9" transform="rotate(72.72, 400, 400)" opacity="0.31"></path><path d="M417.62 301.12C428.7 302.29 438.71 306.36 447.24 312.63 455.66 319.49 462.44 328.19 467.16 337.98 471.64 347.98 474 358.84 473.99 369.88 473.85 380.98 471.54 392.19 467.03 402.87 462.83 413.55 457.16 422.61 450.61 429.81 444.58 436.96 437.6 442.24 430 445.53 422.76 448.92 414.63 450.59 405.85 450.62 397.18 451.3 387.66 450.88 377.6 449.4 367.54 449.17 357.89 448.03 349.13 446.08 340.46 444.94 332.83 442.46 326.73 438.56 320.87 434.9 316.68 429.46 314.61 422.3 312.84 415.13 313.23 406.16 316.13 395.6 319.23 385.04 324.46 373.95 331.21 363.02 337.97 352.17 346.19 341.62 355.34 332.06 364.43 322.83 374.47 314.88 384.99 308.96 395.49 303.76 406.54 300.93 417.62 301.12" stroke-dasharray="8 10" transform="rotate(76.76, 400, 400)" opacity="0.69"></path><path d="M414.77 311.71C424.21 312.67 432.64 316.03 439.76 321.23 446.79 326.9 452.4 334.14 456.27 342.35 460 350.76 461.96 359.95 461.96 369.33 461.9 378.76 460.02 388.3 456.25 397.38 452.71 406.46 447.83 414.16 442.12 420.31 436.75 426.44 430.52 431.05 423.72 434.04 417.18 437.16 409.91 438.9 402.16 439.25 394.5 440.12 386.21 439.99 377.58 438.81 368.95 438.54 360.8 437.34 353.5 435.35 346.25 433.98 339.95 431.46 334.98 427.79 330.17 424.35 326.81 419.47 325.23 413.23 323.86 407 324.33 399.31 326.9 390.33 329.65 381.35 334.19 371.97 340.04 362.77 345.92 353.65 353.07 344.83 361 336.92 368.92 329.27 377.65 322.76 386.74 317.98 395.84 313.74 405.34 311.48 414.77 311.71" stroke-dasharray="8 1" transform="rotate(80.80000000000001, 400, 400)" opacity="0.49"></path><path d="M411.43 322.3C419.23 323.07 426.14 325.75 431.93 329.92 437.65 334.44 442.19 340.27 445.32 346.91 448.35 353.73 449.97 361.22 450 368.91 450.01 376.66 448.53 384.51 445.47 392.02 442.57 399.52 438.49 405.92 433.66 411.09 429.05 416.26 423.66 420.23 417.78 422.93 412.07 425.77 405.77 427.49 399.13 428.08 392.54 429.05 385.51 429.12 378.31 428.22 371.11 427.93 364.41 426.76 358.48 424.84 350.05 422.13 338.44 412.2 335.98 404.71 334.96 399.4 335.45 392.96 337.68 385.53 340.03 378.1 343.87 370.42 348.79 362.94 353.75 355.52 359.77 348.42 366.44 342.11 373.12 336 380.47 330.85 388.08 327.13 395.71 323.8 403.63 322.06 411.43 322.3" stroke-dasharray="4 6" transform="rotate(84.84, 400, 400)" opacity="0.96"></path><path d="M407.71 332.89C420.08 334.39 429.43 341.61 434.36 351.74 439.13 362.37 439.52 375.12 434.69 387.04 430.24 398.95 421.96 407.63 412.14 412.29 402.73 417.36 391.34 419.34 379.77 417.63 368.21 417.47 358.57 413.92 352.54 407.85 346.73 402.33 344.86 393.24 348.46 381.43 352.37 369.62 360.97 357.42 371.68 347.7 382.46 338.56 395.33 332.75 407.71 332.89" stroke-dasharray="3 10" transform="rotate(88.88, 400, 400)" opacity="0.51"></path><path d="M403.72 343.49C412.92 344.5 419.81 349.64 423.46 356.92 427.04 364.52 427.42 373.81 423.91 382.69 420.61 391.56 414.3 398.28 406.75 402.16 399.42 406.31 390.63 408.16 381.91 407.04 373.19 406.77 366.12 403.73 361.83 398.77 357.65 394.15 356.42 387.04 359.24 378.23 362.24 369.41 368.72 360.6 376.77 353.76 384.89 347.27 394.53 343.25 403.72 343.49" stroke-dasharray="4 1" transform="rotate(92.92, 400, 400)" opacity="0.53"></path><path d="M399.62 354.08C411.76 355.63 417.74 367.39 413.13 379.17 408.9 390.94 396.36 398.1 384.66 396.44 372.94 396.29 366.21 387.78 370.02 376.07 374.16 364.34 387.47 353.93 399.62 354.08" stroke-dasharray="4 6" transform="rotate(96.96, 400, 400)" opacity="0.55"></path></g></svg>